<mxfile host="app.diagrams.net" modified="2023-11-12T16:26:21.747Z" agent="Mozilla/5.0 (Windows NT 10.0; Win64; x64) AppleWebKit/537.36 (KHTML, like Gecko) Chrome/116.0.5845.837 YaBrowser/23.9.4.837 Yowser/2.5 Safari/537.36" etag="tEsP8gqqFrYS-B15UMOF" version="21.5.0" type="github">
  <diagram name="Страница 1" id="kH5TGTa49pQ1xXuzojZ1">
    <mxGraphModel dx="746" dy="465" grid="1" gridSize="10" guides="1" tooltips="1" connect="1" arrows="1" fold="1" page="1" pageScale="1" pageWidth="827" pageHeight="1169" math="0" shadow="0">
      <root>
        <mxCell id="0" />
        <mxCell id="1" parent="0" />
        <mxCell id="l62aZes21H0DnFk_PJ2G-6" value="" style="ellipse;html=1;shape=startState;fillColor=#000000;strokeColor=#ff0000;" parent="1" vertex="1">
          <mxGeometry x="120" y="150" width="30" height="30" as="geometry" />
        </mxCell>
        <mxCell id="l62aZes21H0DnFk_PJ2G-7" value="" style="edgeStyle=orthogonalEdgeStyle;html=1;verticalAlign=bottom;endArrow=open;endSize=8;strokeColor=#ff0000;rounded=0;entryX=0.5;entryY=0;entryDx=0;entryDy=0;" parent="1" source="l62aZes21H0DnFk_PJ2G-6" target="l62aZes21H0DnFk_PJ2G-9" edge="1">
          <mxGeometry relative="1" as="geometry">
            <mxPoint x="250" y="200" as="targetPoint" />
          </mxGeometry>
        </mxCell>
        <mxCell id="l62aZes21H0DnFk_PJ2G-20" style="edgeStyle=orthogonalEdgeStyle;rounded=0;orthogonalLoop=1;jettySize=auto;html=1;exitX=0.5;exitY=1;exitDx=0;exitDy=0;entryX=0.5;entryY=0;entryDx=0;entryDy=0;endArrow=open;endFill=0;" parent="1" source="l62aZes21H0DnFk_PJ2G-9" target="l62aZes21H0DnFk_PJ2G-16" edge="1">
          <mxGeometry relative="1" as="geometry" />
        </mxCell>
        <mxCell id="l62aZes21H0DnFk_PJ2G-9" value="Начало учёта времени" style="html=1;whiteSpace=wrap;" parent="1" vertex="1">
          <mxGeometry x="170" y="190" width="140" height="20" as="geometry" />
        </mxCell>
        <mxCell id="l62aZes21H0DnFk_PJ2G-14" value="Добавление задачи&amp;nbsp;" style="html=1;whiteSpace=wrap;" parent="1" vertex="1">
          <mxGeometry x="60" y="320" width="140" height="20" as="geometry" />
        </mxCell>
        <mxCell id="l62aZes21H0DnFk_PJ2G-21" style="edgeStyle=orthogonalEdgeStyle;rounded=0;orthogonalLoop=1;jettySize=auto;html=1;exitX=0;exitY=0.5;exitDx=0;exitDy=0;entryX=0.5;entryY=0;entryDx=0;entryDy=0;endArrow=open;endFill=0;" parent="1" source="l62aZes21H0DnFk_PJ2G-16" target="l62aZes21H0DnFk_PJ2G-14" edge="1">
          <mxGeometry relative="1" as="geometry" />
        </mxCell>
        <mxCell id="l62aZes21H0DnFk_PJ2G-16" value="" style="rhombus;whiteSpace=wrap;html=1;" parent="1" vertex="1">
          <mxGeometry x="200" y="240" width="80" height="40" as="geometry" />
        </mxCell>
      </root>
    </mxGraphModel>
  </diagram>
</mxfile>
